<?xml version="1.0" encoding="UTF-8" standalone="no"?>
<!DOCTYPE svg PUBLIC "-//W3C//DTD SVG 1.1//EN" "http://www.w3.org/Graphics/SVG/1.1/DTD/svg11.dtd">
<svg width="100%" height="100%" viewBox="0 0 1920 1080" version="1.1" xmlns="http://www.w3.org/2000/svg" xmlns:xlink="http://www.w3.org/1999/xlink" xml:space="preserve" style="fill-rule:evenodd;clip-rule:evenodd;stroke-linejoin:round;stroke-miterlimit:1.41421;">
    <rect id="Sky" x="0" y="0" width="1920" height="1080" style="fill:rgb(228,233,212);"/>
    <path id="Background-Hill" d="M0,710.273C0,710.273 999,576.667 1319,587C1639,597.333 1920,684.273 1920,684.273L1920,1080L0,1080L0,710.273Z" style="fill:rgb(112,134,61);"/>
    <path id="Middle-Hill" d="M0,562.422C0,562.422 648.5,633.854 1000,694.354C1323.96,750.114 1920,903 1920,903L1920,1080L0,1080L0,562.422Z" style="fill:rgb(125,149,69);"/>
    <path id="Foreground-Hill" d="M0,729C0,729 799.354,671.068 1119.35,687.068C1421.18,702.159 1920,749 1920,749L1920,1080L0,1080L0,729Z" style="fill:rgb(131,158,74);"/>
    <path id="Cloud" d="M640,240C640,240 620.179,239.296 620,220C619.818,200.382 640,200 640,200L680,200C680,200 676.946,184.176 680,179C696.937,150.296 740,170 740,170C740,170 738.333,155 740,150C741.491,145.528 745.427,142.143 750,141C756.667,139.333 780,140 780,140C780,140 768.436,128.537 800,120C835.883,110.295 854.949,116.903 870,120C895.562,125.26 890,140 890,140C890,140 907.019,132.669 920,150C926.38,158.518 920,170 920,170C920,170 934.262,159.012 950,180C953.999,185.334 950,200 950,200L970,200C970,200 990.048,200.061 990,220C989.951,240.122 970,240 970,240L640,240Z" style="fill:rgb(239,242,231);"/>
</svg>
