<?xml version="1.0" encoding="UTF-8" standalone="no"?>
<!DOCTYPE svg PUBLIC "-//W3C//DTD SVG 1.1//EN" "http://www.w3.org/Graphics/SVG/1.1/DTD/svg11.dtd">
<svg width="100%" height="100%" viewBox="0 0 700 700" version="1.1" xmlns="http://www.w3.org/2000/svg" xmlns:xlink="http://www.w3.org/1999/xlink" xml:space="preserve" style="fill-rule:evenodd;clip-rule:evenodd;stroke-linecap:round;stroke-linejoin:round;stroke-miterlimit:1.5;">
    <g id="shadow" transform="matrix(1,0,0,1.144,0,-94.48)">
        <ellipse cx="351.5" cy="607.5" rx="259.5" ry="62.5" style="fill:rgb(119,145,67);"/>
    </g>
    <g id="body" transform="matrix(1,0,0,1,-735.5,-338)">
        <path d="M1027,392C1027,392 1049.71,348.921 1090,349C1133.18,349.085 1152,390 1152,390C1152,390 1190.48,343.811 1243,373.981C1283.71,397.365 1271,447 1271,447C1271,447 1328.33,433.315 1348,488C1362.03,527.003 1325,560 1325,560C1325,560 1374.32,544.154 1391,593C1404.41,632.275 1375,656 1375,656C1375,656 1406.8,665.885 1397,726C1391.44,760.084 1340,769 1340,769C1340,769 1370.57,786.132 1346,833.215C1329.62,864.618 1286,854 1286,854C1286,854 1290.49,880.779 1260,894C1229.05,907.42 1200,880 1200,880C1200,880 1168.11,914.074 1140,915C1106.31,916.11 1080,882.137 1080,882.137C1080,882.137 1049.17,907.39 1000,896C964.48,887.772 960,850 960,850C960,850 936.112,861.713 909,848C880.336,833.502 890,804 890,804C890,804 838.079,815.453 813,776C784.458,731.1 820,696 820,696C820,696 781.662,696.135 775,660C763.435,597.274 804.999,594 804.999,594C804.999,594 796.661,562.669 814,540C826.567,523.57 854,524 854,524C854,524 845.181,486.876 868,460C896.454,426.487 926,431 926,431C926,431 922.497,405.393 954,387C992.822,364.334 1027,392 1027,392Z" style="fill:white;"/>
    </g>
    <path id="head" d="M300,200C300,200 250,376.667 260,420C268.073,454.982 300.454,459.983 360,460C419.467,460.017 451.927,454.982 460,420C470,376.667 420,200 420,200C420,200 418.723,170.687 360,170C300.643,169.305 300,200 300,200Z" style="fill:rgb(40,38,39);stroke:black;stroke-width:4px;"/>
    <g id="leftear" transform="matrix(0.375,0.649519,-1.16667,0.673575,435,-51.1474)">
        <path d="M200,180C200,180 160,220 160,240C160,260 200,300 200,300C200,300 240,260 240,240C240,220 200,180 200,180Z" style="fill:rgb(40,38,39);stroke:black;stroke-width:3.67px;"/>
    </g>
    <g id="rightear" transform="matrix(0.375,-0.649519,-1.16667,-0.673575,695,531.976)">
        <path d="M200,180C200,180 160,220 160,240C160,260 200,300 200,300C200,300 240,260 240,240C240,220 200,180 200,180Z" style="fill:rgb(40,38,39);stroke:black;stroke-width:3.67px;"/>
    </g>
    <g id="eyeleft" transform="matrix(1,0,0,1,-29.5787,-10)">
        <ellipse class="eyeleft" cx="360" cy="285" rx="20" ry="25" style="fill:white;stroke:black;stroke-width:4px;"/>
    </g>
    <g id="eyeright" transform="matrix(1,0,0,1,30,-10)">
        <ellipse class="eyeright" cx="360" cy="285" rx="20" ry="25" style="fill:white;stroke:black;stroke-width:4px;"/>
    </g>
</svg>
